HIERARCHY
ROOT Bip001_Pelvis
{
  OFFSET 34.4345 95.6767 -26.8758
  CHANNELS 6 Xposition Yposition Zposition Zrotation Xrotation Yrotation
  JOINT Bip001_Spine
  {
    OFFSET 1.4188e-005 10.2191 -0.0116013
    CHANNELS 3 Zrotation Xrotation Yrotation
    JOINT Bip001_L_Thigh
    {
      OFFSET 11.0458 -10.2192 0.0116197
      CHANNELS 3 Zrotation Xrotation Yrotation
      JOINT Bip001_L_Calf
      {
        OFFSET -0.707118 -44.0221 0.360014
        CHANNELS 3 Zrotation Xrotation Yrotation
        JOINT Bip001_L_Foot
        {
          OFFSET -0.651902 -40.5938 -3.56146
          CHANNELS 3 Zrotation Xrotation Yrotation
          JOINT Bip001_L_Toe0
          {
            OFFSET 0.0530839 -10.2181 13.1504
            CHANNELS 3 Zrotation Xrotation Yrotation
            End Site
            {
              OFFSET -1.02532e-005 0 7.55606
            }
          }
        }
      }
    }
    JOINT Bip001_R_Thigh
    {
      OFFSET -11.0458 -10.2191 0.0115893
      CHANNELS 3 Zrotation Xrotation Yrotation
      JOINT Bip001_R_Calf
      {
        OFFSET 0.706994 -44.0221 0.35984
        CHANNELS 3 Zrotation Xrotation Yrotation
        JOINT Bip001_R_Foot
        {
          OFFSET 0.651786 -40.5938 -3.5613
          CHANNELS 3 Zrotation Xrotation Yrotation
          JOINT Bip001_R_Toe0
          {
            OFFSET -0.0531479 -10.2181 13.1504
            CHANNELS 3 Zrotation Xrotation Yrotation
            End Site
            {
              OFFSET -1.02894e-005 0 7.55606
            }
          }
        }
      }
    }
    JOINT Bip001_Spine1
    {
      OFFSET 1.87041e-005 14.5736 1.08638
      CHANNELS 3 Zrotation Xrotation Yrotation
      JOINT Bip001_Spine2
      {
        OFFSET 2.24614e-005 14.5058 -1.69078
        CHANNELS 3 Zrotation Xrotation Yrotation
        JOINT Bip001_Neck
        {
          OFFSET 2.20278e-005 15.3945 -0.489414
          CHANNELS 3 Zrotation Xrotation Yrotation
          JOINT Bip001_L_Clavicle
          {
            OFFSET 6.06036 -0.000579998 0.00836775
            CHANNELS 3 Zrotation Xrotation Yrotation
            JOINT Bip001_L_UpperArm
            {
              OFFSET 11.5509 -0.0600302 0.00193952
              CHANNELS 3 Zrotation Xrotation Yrotation
              JOINT Bip001_L_Forearm
              {
                OFFSET 25.9523 0.0806089 -2.15551
                CHANNELS 3 Zrotation Xrotation Yrotation
                JOINT Bip001_L_Hand
                {
                  OFFSET 32.2475 0.153767 1.63968
                  CHANNELS 3 Zrotation Xrotation Yrotation
                  JOINT Bip001_L_Finger0
                  {
                    OFFSET 6.04639 -2.20976 5.90322
                    CHANNELS 3 Zrotation Xrotation Yrotation
                    End Site
                    {
                      OFFSET 4.22375 -1.43895 0.606485
                    }
                  }
                  JOINT Bip001_L_Finger1
                  {
                    OFFSET 11.0826 -0.704819 -0.198153
                    CHANNELS 3 Zrotation Xrotation Yrotation
                    End Site
                    {
                      OFFSET 6.20027 -0.397518 -0.0787166
                    }
                  }
                }
              }
            }
          }
          JOINT Bip001_R_Clavicle
          {
            OFFSET -6.06037 -0.000563197 0.00835105
            CHANNELS 3 Zrotation Xrotation Yrotation
            JOINT Bip001_R_UpperArm
            {
              OFFSET -11.5509 -0.0599978 0.00190698
              CHANNELS 3 Zrotation Xrotation Yrotation
              JOINT Bip001_R_Forearm
              {
                OFFSET -25.9523 0.0806822 -2.15589
                CHANNELS 3 Zrotation Xrotation Yrotation
                JOINT Bip001_R_Hand
                {
                  OFFSET -32.2475 0.153859 1.63989
                  CHANNELS 3 Zrotation Xrotation Yrotation
                  JOINT Bip001_R_Finger0
                  {
                    OFFSET -6.04641 -2.20976 5.90317
                    CHANNELS 3 Zrotation Xrotation Yrotation
                    End Site
                    {
                      OFFSET -4.22376 -1.43895 0.60647
                    }
                  }
                  JOINT Bip001_R_Finger1
                  {
                    OFFSET -11.0826 -0.704794 -0.198182
                    CHANNELS 3 Zrotation Xrotation Yrotation
                    End Site
                    {
                      OFFSET -6.20028 -0.397504 -0.0787333
                    }
                  }
                }
              }
            }
          }
          JOINT Bip001_Head
          {
            OFFSET 1.09673e-005 11.2744 2.05948
            CHANNELS 3 Zrotation Xrotation Yrotation
            End Site
            {
              OFFSET 2.89576e-005 20.8808 -2.77728e-005
            }
          }
        }
      }
    }
  }
}
MOTION
Frames:	5
Frame Time:	0.04
33.9473 95.9069 -27.6727 0.347226 -0.444664 -1.95426 -0.163583 2.10481 -0.26213 4.0527 -1.00987 7.50875 -0.273833 5.90808 -4.29402 3.58617 -3.97169 -0.0504359 1.10363 -4.66541 -0.426334 -4.07412 -3.19393 -0.761863 0.00762198 10.5729 0.569428 -4.75324 -9.66405 4.49553 2.16117 -7.37251 2.24433 -0.317879 4.21521 -0.523096 -0.31753 4.21522 -0.523098 1.7659 -6.76779 -2.27104 -25.8466 7.7566 -0.322651 -58.3455 44.9554 4.95287 14.575 -4.67996 -23.1675 8.04151 0.418065 -3.03699 3.18055e-015 6.36111e-015 -3.18055e-015 6.36111e-015 6.36111e-015 -3.18055e-015 23.0341 15.1308 21.3734 65.2072 42.0302 -13.8313 -20.7506 8.60722 15.9978 -2.06067 -7.0535 11.1171 -4.77083e-015 6.36111e-015 3.18055e-015 -3.18055e-015 3.18056e-015 2.38542e-015 -0.704355 -7.3129 -1.67703 
33.9293 95.9149 -27.6654 0.361061 -0.518276 -1.8809 -0.179558 2.10114 -0.262129 4.05634 -0.904715 7.30938 -0.289876 5.80911 -4.18096 3.72709 -3.81598 -0.0504266 1.13398 -4.80281 -0.493753 -4.07202 -3.12028 -0.794833 0.0101309 10.6264 0.576478 -4.73908 -9.6642 4.48458 2.15996 -7.3554 2.24009 -0.349749 4.20305 -0.523088 -0.349646 4.20307 -0.52309 1.5523 -6.83138 -2.18491 -25.5829 7.82739 -0.254754 -58.2228 45.2525 4.92199 14.8028 -4.34078 -23.078 8.11237 0.424911 -3.09665 3.18055e-015 0 -4.77083e-015 3.18055e-015 -3.18056e-015 -1.59028e-015 23.2419 15.1628 21.3022 65.5054 41.8598 -13.6381 -20.7016 7.44289 15.682 -1.3712 -6.49252 11.4263 -0 0 7.95139e-016 1.59028e-015 -3.18056e-015 -0 -0.590562 -7.16936 -1.66587 
33.8948 95.9114 -27.6805 0.358507 -0.555266 -1.81466 -0.183118 2.08886 -0.256741 4.10238 -0.898388 7.21466 -0.312206 5.85116 -4.10998 3.71845 -3.84067 -0.050428 1.18112 -4.80938 -0.530661 -4.03807 -3.06274 -0.753794 0.0265451 10.6192 0.556733 -4.77926 -9.67644 4.41042 2.16218 -7.34608 2.2304 -0.357514 4.18119 -0.507436 -0.357367 4.1812 -0.507337 1.43135 -6.87025 -2.14339 -25.4507 7.8562 -0.17279 -58.0497 45.1926 4.90343 14.7999 -4.22747 -23.0815 8.01495 0.610303 -3.1073 3.18055e-015 0 -1.59028e-015 0 0 -3.18055e-015 23.3602 15.18 21.24 65.6065 41.5143 -13.1847 -20.7176 6.65817 15.4061 -0.45946 -5.51533 11.6453 -1.59028e-015 -6.36111e-015 -0 -4.41391e-032 -3.18056e-015 -7.95139e-016 -0.524554 -7.03359 -1.66212 
33.8648 95.8937 -27.6985 0.360319 -0.555076 -1.79112 -0.186872 2.08095 -0.237789 4.0417 -0.993558 7.45168 -0.1506 5.99998 -4.498 4.13197 -3.61502 -0.0694851 1.25856 -5.0431 -0.536533 -4.02334 -3.13339 -0.797953 0.0279292 10.7811 0.560105 -4.77752 -9.75367 4.40654 2.16333 -7.34352 2.22587 -0.363344 4.15737 -0.470283 -0.363248 4.15739 -0.4698 1.25186 -6.88867 -2.12329 -25.3153 7.87887 -0.146486 -57.9445 44.9072 4.9369 14.7613 -4.22412 -23.114 7.78667 0.652393 -3.02403 -6.36111e-015 -6.36111e-015 -0 -6.36111e-015 -6.36111e-015 -0 23.4384 15.1524 21.1915 65.8726 41.5628 -12.8289 -20.8311 5.59847 15.0641 0.555542 -4.64616 11.961 3.18055e-015 0 -1.59028e-015 3.18055e-015 0 -1.59028e-015 -0.410845 -6.91686 -1.70551 
33.8369 95.8962 -27.7138 0.361577 -0.582595 -1.73799 -0.192961 2.07926 -0.234828 4.13061 -1.03872 7.33396 -0.204273 6.14581 -4.31092 3.6466 -3.99736 -0.0458113 1.1014 -4.71165 -0.457392 -3.98843 -3.07646 -0.729592 0.050866 10.7226 0.513937 -4.79505 -9.73528 4.33039 2.16053 -7.32074 2.22448 -0.377716 4.15471 -0.464629 -0.377717 4.15474 -0.464631 1.24375 -6.90947 -2.11196 -25.3334 7.88753 -0.0834337 -58.0322 45.0007 5.10042 14.8028 -4.44443 -23.0561 7.86808 0.669342 -2.89974 -3.18055e-015 3.18055e-015 -3.18055e-015 5.29669e-031 6.36111e-015 -4.77083e-015 23.4021 15.1762 21.2292 65.9452 41.7294 -12.521 -20.7832 4.46427 14.6226 1.65652 -3.98722 12.3543 1.59028e-015 -3.18055e-015 2.38542e-015 1.59028e-015 -6.36111e-015 3.18055e-015 -0.363863 -6.86023 -1.70986 
